<?xml version="1.0" encoding="utf-8"?>
<svg version="1.1" xmlns:xlink="http://www.w3.org/1999/xlink" width="26px" height="21px" xmlns="http://www.w3.org/2000/svg">
  <g transform="matrix(1 0 0 1 -501 -455 )">
    <path d="M 21.7005411906194 11.5291193181818  C 21.908999799559 11.6086647727273  22.0132291040289 11.7528409090909  22.0132291040289 11.9616477272727  L 22.0132291040289 16.7045454545455  C 22.0132291040289 17.8877840909091  21.5728602926438 18.8995028409091  20.6921226698737 19.7397017045455  C 19.8113850471036 20.5799005681818  18.7508518741231 21  17.5105231509321 21  L 4.50270595309681 21  C 3.26237722990579 21  2.20184405692524 20.5799005681818  1.32110643415514 19.7397017045455  C 0.440368811385047 18.8995028409091  0 17.8877840909091  0 16.7045454545455  L 0 4.29545454545455  C 0 3.11221590909091  0.440368811385047 2.10049715909091  1.32110643415514 1.26029829545455  C 2.20184405692524 0.42009943181818  3.26237722990579 0  4.50270595309681 0  L 17.5105231509321 0  C 18.167167769092 0  18.7769092002405 0.124289772727272  19.3397474443776 0.372869318181817  C 19.4960914010824 0.44247159090909  19.5898977751052 0.556818181818181  19.6211665664462 0.71590909090909  C 19.6524353577871 0.884943181818181  19.6055321707757 1.02911931818182  19.4804570054119 1.1484375  L 18.7143716175586 1.87926136363636  C 18.6101423130888 1.97869318181818  18.4902786129485 2.02840909090909  18.3547805171377 2.02840909090909  C 18.3235117257968 2.02840909090909  18.2766085387853 2.01846590909091  18.2140709561034 1.99857954545455  C 17.9743435558228 1.93892045454545  17.7398276207657 1.90909090909091  17.5105231509321 2  L 4.50270595309681 2  C 3.81479254359591 1.90909090909091  3.22589697334135 2.14275568181818  2.73601924233313 2.61008522727273  C 2.24614151132492 3.07741477272727  2.00120264582081 3.63920454545455  2 4.29545454545455  L 2 16.7045454545455  C 2.00120264582081 17.3607954545455  2.24614151132492 17.9225852272727  2.73601924233313 18.3899147727273  C 3.22589697334135 18.8572443181818  3.81479254359591 19.0909090909091  4.50270595309681 19  L 17.5105231509321 19  C 18.198436560433 19.0909090909091  18.7873321306875 18.8572443181818  19.2772098616957 18.3899147727273  C 19.767087592704 17.9225852272727  20.0120264582081 17.3607954545455  20.0120264582081 16.7045454545455  L 20.0120264582081 12.9161931818182  C 20.0120264582081 12.7869318181818  20.0589296452195 12.6775568181818  20.1527360192423 12.5880681818182  L 21.1533373421527 11.6335227272727  C 21.2575666466226 11.5340909090909  21.3774303467629 11.484375  21.5129284425737 11.484375  C 21.5754660252556 11.484375  21.6380036079375 11.4992897727273  21.7005411906194 11.5291193181818  Z M 26 3.81818181818182  C 26 4.14630681818182  25.8749248346362 4.4296875  25.6247745039086 4.66832386363636  L 12.8983764281419 16.8089488636364  C 12.6482260974143 17.0475852272727  12.3511725796753 17.1669034090909  12.0072158749248 17.1669034090909  C 11.6632591701744 17.1669034090909  11.3662056524354 17.0475852272727  11.1160553217078 16.8089488636364  L 4.39326518340349 10.3955965909091  C 4.14311485267589 10.1569602272727  4.01803968731209 9.87357954545455  4.01803968731209 9.54545454545455  C 4.01803968731209 9.21732954545454  4.14311485267589 8.93394886363636  4.39326518340349 8.6953125  L 6.11304870715574 7.0546875  C 6.36319903788334 6.81605113636364  6.66025255562237 6.69673295454545  7.00420926037282 6.69673295454545  C 7.34816596512327 6.69673295454545  7.6452194828623 6.81605113636364  7.8953698135899 7.0546875  L 12.0072158749248 10.9772727272727  L 22.1226698737222 1.32741477272727  C 22.3728202044498 1.08877840909091  22.6698737221888 0.969460227272727  23.0138304269393 0.969460227272727  C 23.3577871316897 0.969460227272727  23.6548406494287 1.08877840909091  23.9049909801563 1.32741477272727  L 25.6247745039086 2.96803977272727  C 25.8749248346362 3.20667613636364  26 3.49005681818182  26 3.81818181818182  Z " fill-rule="nonzero" fill="#ff8900" stroke="none" transform="matrix(1 0 0 1 501 455 )" />
  </g>
</svg>